<svg width="580" height="129" viewBox="0 0 580 129" fill="none" xmlns="http://www.w3.org/2000/svg">
<path d="M48.5881 2.18182V104H24.0284V25.1506H23.4318L0.661932 39.071V17.7926L25.7685 2.18182H48.5881ZM113.206 106.486C104.324 106.486 96.6675 104.381 90.2376 100.172C83.8076 95.9295 78.8526 89.8475 75.3725 81.9261C71.8924 73.9716 70.1689 64.4096 70.2021 53.2401C70.2352 42.0705 71.9753 32.5914 75.4222 24.8026C78.9023 16.9806 83.8408 11.0312 90.2376 6.95455C96.6675 2.84469 104.324 0.789769 113.206 0.789769C122.089 0.789769 129.745 2.84469 136.175 6.95455C142.638 11.0312 147.61 16.9806 151.09 24.8026C154.57 32.6245 156.293 42.1037 156.26 53.2401C156.26 64.4427 154.52 74.0213 151.04 81.9759C147.56 89.9304 142.605 96.0123 136.175 100.222C129.778 104.398 122.122 106.486 113.206 106.486ZM113.206 86.3509C118.509 86.3509 122.801 83.6496 126.083 78.2472C129.364 72.8116 130.988 64.4759 130.955 53.2401C130.955 45.8821 130.209 39.8168 128.718 35.044C127.226 30.2382 125.155 26.6586 122.503 24.3054C119.852 21.9522 116.753 20.7756 113.206 20.7756C107.936 20.7756 103.677 23.4437 100.429 28.7798C97.1812 34.0829 95.5406 42.2363 95.5075 53.2401C95.4743 60.6974 96.1869 66.8788 97.6452 71.7841C99.1367 76.6894 101.225 80.3518 103.909 82.7713C106.594 85.1577 109.693 86.3509 113.206 86.3509ZM190.987 90.0795L190.539 95.598C190.142 100.172 189.33 104.63 188.103 108.972C186.91 113.347 185.634 117.274 184.275 120.754C182.916 124.234 181.839 126.936 181.044 128.858H165.731C166.261 126.936 166.974 124.234 167.869 120.754C168.797 117.274 169.659 113.347 170.454 108.972C171.25 104.597 171.697 100.155 171.797 95.6477L171.896 90.0795H190.987ZM247.191 106.486C238.308 106.486 230.652 104.381 224.222 100.172C217.792 95.9295 212.837 89.8475 209.357 81.9261C205.877 73.9716 204.153 64.4096 204.186 53.2401C204.22 42.0705 205.96 32.5914 209.407 24.8026C212.887 16.9806 217.825 11.0312 224.222 6.95455C230.652 2.84469 238.308 0.789769 247.191 0.789769C256.073 0.789769 263.73 2.84469 270.159 6.95455C276.623 11.0312 281.594 16.9806 285.074 24.8026C288.554 32.6245 290.278 42.1037 290.245 53.2401C290.245 64.4427 288.505 74.0213 285.025 81.9759C281.544 89.9304 276.589 96.0123 270.159 100.222C263.763 104.398 256.106 106.486 247.191 106.486ZM247.191 86.3509C252.494 86.3509 256.786 83.6496 260.067 78.2472C263.348 72.8116 264.972 64.4759 264.939 53.2401C264.939 45.8821 264.194 39.8168 262.702 35.044C261.211 30.2382 259.139 26.6586 256.488 24.3054C253.836 21.9522 250.737 20.7756 247.191 20.7756C241.921 20.7756 237.662 23.4437 234.414 28.7798C231.166 34.0829 229.525 42.2363 229.492 53.2401C229.459 60.6974 230.171 66.8788 231.63 71.7841C233.121 76.6894 235.209 80.3518 237.894 82.7713C240.578 85.1577 243.677 86.3509 247.191 86.3509ZM346.449 106.486C337.566 106.486 329.91 104.381 323.48 100.172C317.05 95.9295 312.095 89.8475 308.615 81.9261C305.135 73.9716 303.411 64.4096 303.444 53.2401C303.477 42.0705 305.217 32.5914 308.664 24.8026C312.145 16.9806 317.083 11.0312 323.48 6.95455C329.91 2.84469 337.566 0.789769 346.449 0.789769C355.331 0.789769 362.987 2.84469 369.417 6.95455C375.88 11.0312 380.852 16.9806 384.332 24.8026C387.812 32.6245 389.536 42.1037 389.502 53.2401C389.502 64.4427 387.762 74.0213 384.282 81.9759C380.802 89.9304 375.847 96.0123 369.417 100.222C363.02 104.398 355.364 106.486 346.449 106.486ZM346.449 86.3509C351.752 86.3509 356.044 83.6496 359.325 78.2472C362.606 72.8116 364.23 64.4759 364.197 53.2401C364.197 45.8821 363.451 39.8168 361.96 35.044C360.468 30.2382 358.397 26.6586 355.745 24.3054C353.094 21.9522 349.995 20.7756 346.449 20.7756C341.179 20.7756 336.92 23.4437 333.672 28.7798C330.423 34.0829 328.783 42.2363 328.75 53.2401C328.717 60.6974 329.429 66.8788 330.887 71.7841C332.379 76.6894 334.467 80.3518 337.152 82.7713C339.836 85.1577 342.935 86.3509 346.449 86.3509ZM445.706 106.486C436.824 106.486 429.167 104.381 422.738 100.172C416.308 95.9295 411.353 89.8475 407.873 81.9261C404.392 73.9716 402.669 64.4096 402.702 53.2401C402.735 42.0705 404.475 32.5914 407.922 24.8026C411.402 16.9806 416.341 11.0312 422.738 6.95455C429.167 2.84469 436.824 0.789769 445.706 0.789769C454.589 0.789769 462.245 2.84469 468.675 6.95455C475.138 11.0312 480.11 16.9806 483.59 24.8026C487.07 32.6245 488.793 42.1037 488.76 53.2401C488.76 64.4427 487.02 74.0213 483.54 81.9759C480.06 89.9304 475.105 96.0123 468.675 100.222C462.278 104.398 454.622 106.486 445.706 106.486ZM445.706 86.3509C451.009 86.3509 455.301 83.6496 458.583 78.2472C461.864 72.8116 463.488 64.4759 463.455 53.2401C463.455 45.8821 462.709 39.8168 461.218 35.044C459.726 30.2382 457.655 26.6586 455.003 24.3054C452.352 21.9522 449.253 20.7756 445.706 20.7756C440.436 20.7756 436.177 23.4437 432.929 28.7798C429.681 34.0829 428.041 42.2363 428.007 53.2401C427.974 60.6974 428.687 66.8788 430.145 71.7841C431.637 76.6894 433.725 80.3518 436.409 82.7713C439.094 85.1577 442.193 86.3509 445.706 86.3509ZM533.38 89.2841V17.2955H553.416V89.2841H533.38ZM507.379 63.3324V43.2472H579.368V63.3324H507.379Z" fill="black"/>
</svg>
