<svg aria-hidden="true" style="position: absolute; width: 0; height: 0; overflow: hidden;" version="1.1" xmlns="http://www.w3.org/2000/svg" xmlns:xlink="http://www.w3.org/1999/xlink">
<defs>
<symbol id="icon-discord" viewBox="0 0 32 32">
<path fill="#7289da" style="fill: var(--color1, #7289da)" d="M26.963 0c1.875 0 3.387 1.516 3.476 3.3v28.7l-3.569-3.031-1.96-1.784-2.139-1.864 0.893 2.94h-18.717c-1.869 0-3.387-1.42-3.387-3.301v-21.653c0-1.784 1.52-3.303 3.393-3.303h22zM18.805 7.577h-0.040l-0.269 0.267c2.764 0.8 4.101 2.049 4.101 2.049-1.781-0.891-3.387-1.336-4.992-1.516-1.16-0.18-2.32-0.085-3.3 0h-0.267c-0.627 0-1.96 0.267-3.747 0.98-0.623 0.271-0.98 0.448-0.98 0.448s1.336-1.336 4.28-2.049l-0.18-0.18c0 0-2.229-0.085-4.636 1.693 0 0-2.407 4.192-2.407 9.36 0 0 1.333 2.32 4.991 2.408 0 0 0.533-0.711 1.073-1.336-2.053-0.624-2.853-1.872-2.853-1.872s0.179 0.088 0.447 0.267h0.080c0.040 0 0.059 0.020 0.080 0.040v0.008c0.021 0.021 0.040 0.040 0.080 0.040 0.44 0.181 0.88 0.36 1.24 0.533 0.621 0.269 1.42 0.537 2.4 0.715 1.24 0.18 2.661 0.267 4.28 0 0.8-0.18 1.6-0.356 2.4-0.713 0.52-0.267 1.16-0.533 1.863-0.983 0 0-0.8 1.248-2.94 1.872 0.44 0.621 1.060 1.333 1.060 1.333 3.659-0.080 5.080-2.4 5.16-2.301 0-5.16-2.42-9.36-2.42-9.36-2.18-1.619-4.22-1.68-4.58-1.68zM19.029 13.461c0.937 0 1.693 0.8 1.693 1.78 0 0.987-0.76 1.787-1.693 1.787s-1.693-0.8-1.693-1.779c0.003-0.987 0.764-1.784 1.693-1.788zM12.972 13.461c0.933 0 1.688 0.8 1.688 1.78 0 0.987-0.76 1.787-1.693 1.787s-1.693-0.8-1.693-1.779c0-0.987 0.76-1.784 1.699-1.788z"></path>
</symbol>
<symbol id="icon-medium" viewBox="0 0 32 32">
<path d="M0 0v32h32v-32zM26.584 7.581l-1.716 1.645c-0.121 0.092-0.198 0.237-0.198 0.399 0 0.030 0.003 0.059 0.007 0.087l-0-0.003v12.089c-0.004 0.025-0.007 0.053-0.007 0.083 0 0.162 0.077 0.306 0.196 0.398l0.001 0.001 1.676 1.645v0.361h-8.429v-0.36l1.736-1.687c0.171-0.171 0.171-0.22 0.171-0.48v-9.773l-4.827 12.26h-0.653l-5.621-12.26v8.217c-0.007 0.046-0.010 0.099-0.010 0.152 0 0.307 0.122 0.586 0.321 0.791l-0-0 2.259 2.739v0.361h-6.403v-0.36l2.26-2.74c0.189-0.196 0.306-0.464 0.306-0.759 0-0.065-0.006-0.129-0.017-0.19l0.001 0.007v-9.501c0.003-0.025 0.004-0.055 0.004-0.085 0-0.245-0.106-0.465-0.274-0.617l-0.001-0.001-2.008-2.419v-0.36h6.232l4.817 10.564 4.235-10.565h5.941z"></path>
</symbol>
<symbol id="icon-calendar" viewBox="0 0 32 32">
<path d="M27 31h-22c-1.104 0-2-0.896-2-2v-22c0-1.105 0.896-2 2-2h2v1c0 1.657 1.343 3 3 3s3-1.343 3-3v-1h6v1c0 1.657 1.344 3 3 3s3-1.343 3-3v-1h2c1.104 0 2 0.895 2 2v22c0 1.104-0.896 2-2 2zM27 12h-22v17h22v-17zM10 17h-3v-3h3v3zM10 22h-3v-3h3v3zM10 27h-3v-3h3v3zM15 17h-3v-3h3v3zM15 22h-3v-3h3v3zM15 27h-3v-3h3v3zM20 17h-3v-3h3v3zM20 22h-3v-3h3v3zM20 27h-3v-3h3v3zM25 17h-3v-3h3v3zM25 22h-3v-3h3v3zM25 27h-3v-3h3v3zM21.969 8c-1.088 0-1.969-0.882-1.969-1.969v-2.062c0-1.088 0.881-1.969 1.969-1.969s1.969 0.881 1.969 1.969v2.062c0 1.087-0.881 1.969-1.969 1.969zM9.969 8c-1.088 0-1.969-0.882-1.969-1.969v-2.062c0-1.088 0.881-1.969 1.969-1.969s1.969 0.881 1.969 1.969v2.062c0 1.087-0.882 1.969-1.969 1.969z"></path>
</symbol>
<symbol id="icon-twitter" viewBox="0 0 20 20">
<path d="M17.316 6.246c0.008 0.162 0.011 0.326 0.011 0.488 0 4.99-3.797 10.742-10.74 10.742-2.133 0-4.116-0.625-5.787-1.697 0.296 0.035 0.596 0.053 0.9 0.053 1.77 0 3.397-0.604 4.688-1.615-1.651-0.031-3.046-1.121-3.526-2.621 0.23 0.043 0.467 0.066 0.71 0.066 0.345 0 0.679-0.045 0.995-0.131-1.727-0.348-3.028-1.873-3.028-3.703 0-0.016 0-0.031 0-0.047 0.509 0.283 1.092 0.453 1.71 0.473-1.013-0.678-1.68-1.832-1.68-3.143 0-0.691 0.186-1.34 0.512-1.898 1.861 2.285 4.644 3.787 7.781 3.945-0.064-0.277-0.097-0.564-0.097-0.861 0-2.084 1.689-3.773 3.774-3.773 1.086 0 2.067 0.457 2.756 1.191 0.859-0.17 1.667-0.484 2.397-0.916-0.282 0.881-0.881 1.621-1.66 2.088 0.764-0.092 1.49-0.293 2.168-0.594-0.506 0.758-1.146 1.422-1.884 1.953z"></path>
</symbol>
<symbol id="icon-linkedin" viewBox="0 0 32 32">
<path d="M29 0h-26c-1.65 0-3 1.35-3 3v26c0 1.65 1.35 3 3 3h26c1.65 0 3-1.35 3-3v-26c0-1.65-1.35-3-3-3zM12 26h-4v-14h4v14zM10 10c-1.106 0-2-0.894-2-2s0.894-2 2-2c1.106 0 2 0.894 2 2s-0.894 2-2 2zM26 26h-4v-8c0-1.106-0.894-2-2-2s-2 0.894-2 2v8h-4v-14h4v2.481c0.825-1.131 2.087-2.481 3.5-2.481 2.488 0 4.5 2.238 4.5 5v9z"></path>
</symbol>
</defs>
</svg>
